<?xml version="1.0" encoding="utf-8"?>
<svg viewBox="18.2817 18.0024 63.4325 63.9976" width="63.432px" height="63.998px" xmlns="http://www.w3.org/2000/svg">
  <path d="M50,82A16,16,0,1,0,34,66,16,16,0,0,0,50,82Zm0-24a8,8,0,1,1-8,8A8,8,0,0,1,50,58Z" style="fill: rgb(255, 255, 255);"/>
  <path d="M77.88,32.21A4,4,0,0,0,77,26.34a48,48,0,0,0-54.07,0A4,4,0,1,0,27.44,33a40,40,0,0,1,45.13,0A4,4,0,0,0,77.88,32.21Z" style="fill: rgb(255, 255, 255);"/>
  <path d="M22.29,66a4,4,0,0,0,4-3.51,24,24,0,0,1,11.14-16.9,4,4,0,1,0-4.28-6.75A32.05,32.05,0,0,0,18.33,61.38,4,4,0,0,0,22.29,66Z" style="fill: rgb(255, 255, 255);"/>
  <path d="M73.74,62.49a4,4,0,1,0,7.92-1.11A32.05,32.05,0,0,0,66.88,38.84a4,4,0,1,0-4.28,6.75A24,24,0,0,1,73.74,62.49Z" style="fill: rgb(255, 255, 255);"/>
  <circle cx="50" cy="38" r="4" style="fill: rgb(255, 255, 255);"/>
</svg>