<?xml version="1.0" encoding="utf-8"?>
<svg viewBox="0 0 100 125" width="100" height="125" xmlns="http://www.w3.org/2000/svg">
  <g transform="matrix(1, 0, 0, 1, 0.23105299472808838, 25.473197937011722)">
    <g>
      <g>
        <path d="M69.51,36.51c0.21,1.08-5.81,1.78-5.6,2.86c0.13,0.69,2.8,1.53,2.8,2.87v3.77V67.57c0,10-8.11,18.109-18.11,18.109     c-10,0-18.11-8.109-18.11-18.109V47.8c0-1.11,0.9-2.01,2.01-2.01s2.01,0.9,2.01,2.01v8.62c0,1.12,0.9,2.021,2.01,2.021     c1.12,0,2.02-0.9,2.02-2.021V46.01v-3.77c0-1.34-2.67-2.18-2.8-2.87c-0.21-1.08,5.81-1.78,5.59-2.86     c-0.13-0.69-2.79-1.53-2.79-2.86V21.2c0-1.12,0.9-2.02,2.01-2.02c1.11,0,2.01,0.9,2.01,2.02v12.45c0,1.33,2.66,2.17,2.8,2.86     c0.21,1.08-5.81,1.78-5.6,2.86c0.14,0.69,2.8,1.53,2.8,2.87v3.77c0,1.11,0.9,2.01,2.01,2.01c1.12,0,2.02-0.9,2.02-2.01v-3.77     c0-1.34-2.67-2.18-2.8-2.87c-0.21-1.08,5.81-1.78,5.59-2.86c-0.13-0.69-2.79-1.53-2.79-2.86V16.34c0-1.11,0.9-2.02,2.01-2.02     s2.01,0.91,2.01,2.02v17.31c0,1.33,2.659,2.17,2.8,2.86c0.21,1.08-5.81,1.78-5.6,2.86c0.14,0.69,2.8,1.53,2.8,2.87v3.77     c0,1.11,0.899,2.01,2.01,2.01s2.01-0.9,2.01-2.01v-3.77c0-1.34-2.66-2.18-2.79-2.87c-0.22-1.08,5.8-1.78,5.59-2.86     c-0.13-0.69-2.8-1.53-2.8-2.86V21.2c0-1.12,0.91-2.02,2.021-2.02c1.109,0,2.01,0.9,2.01,2.02v12.45c0,1.33,2.66,2.17,2.8,2.86     c0.21,1.08-5.81,1.78-5.6,2.86c0.14,0.69,2.8,1.53,2.8,2.87v6.15c0,1.11,0.899,2.01,2.01,2.01s2.01-0.9,2.01-2.01v-6.15     c0-1.34-2.66-2.18-2.79-2.87c-0.22-1.08,5.801-1.78,5.591-2.86c-0.131-0.69-2.801-1.53-2.801-2.86v-3.61     c0-1.11,0.9-2.01,2.021-2.01c1.109,0,2.01,0.9,2.01,2.01v3.61C66.71,34.98,69.37,35.82,69.51,36.51z" style="fill: rgb(255, 255, 255);"/>
      </g>
    </g>
  </g>
</svg>